<svg class="w-7 h-7 mr-2" viewBox="0 0 24 24" fill="none" xmlns="http://www.w3.org/2000/svg">
    <path d="M12 2C6.48 2 2 6.48 2 12C2 17.52 6.48 22 12 22C17.52 22 22 17.52 22 12C22 6.48 17.52 2 12 2ZM13.41 18.09V20H10.74V18.07C9.03 17.71 7.58 16.61 7.47 14.67H9.43C9.53 15.72 10.31 16.54 12.08 16.54C13.9 16.54 14.53 15.56 14.53 14.81C14.53 13.86 14.05 13.16 12.33 12.73L10.64 12.29C8.34 11.71 7.32 10.3 7.32 8.68C7.32 6.84 8.74 5.46 10.74 5.1V3H13.41V5.11C15.09 5.55 16.05 6.9 16.11 8.52H14.15C14.1 7.5 13.47 6.63 12.08 6.63C10.79 6.63 9.92 7.38 9.92 8.63C9.92 9.38 10.36 10.07 11.91 10.48L13.55 10.91C16.16 11.56 17.19 12.96 17.19 14.67C17.19 16.68 15.79 17.76 13.41 18.09Z" fill="currentColor" />
</svg>